# AST/ASF file generated using VICON BodyLanguage
# -----------------------------------------------
:version 1.10
:name VICON
:units
  mass 1.0
  length 0.45
  angle deg
:documentation
   .ast/.asf automatically generated from VICON data using
   VICON BodyBuilder and BodyLanguage model FoxedUp or BRILLIANT.MOD
:root
   order TX TY TZ RX RY RZ
   axis XYZ
   position 0 0 0  
   orientation 0 0 0 
:bonedata
  begin
     id 1 
     name lhipjoint
     direction 0.584852 -0.759097 0.285867 
     length 2.43633 
     axis 0 0 0  XYZ
  end
  begin
     id 2 
     name lfemur
     direction 0.34202 -0.939693 0  
     length 7.14704  
     axis 0 0 20  XYZ
    dof rx ry rz
    limits (-160.0 20.0)
           (-70.0 70.0)
           (-60.0 70.0)
  end
  begin
     id 3 
     name ltibia
     direction 0.342022 -0.939692 0   
     length 7.68483   
     axis 0 0 20   XYZ
    dof rx
    limits (-10.0 170.0)
  end
  begin
     id 4 
     name lfoot
     direction 0.0999605 -0.274639 0.956337   
     length 2.40452   
     axis -90 7.62852e-016 20   XYZ
    dof rx rz
    limits (-45.0 90.0)
           (-70.0 20.0)
  end
  begin
     id 5 
     name ltoes
     direction 1.53468e-011 -4.21881e-011 1   
     length 1.19837   
     axis -90 7.62852e-016 20   XYZ
    dof rx
    limits (-90.0 20.0)
  end
  begin
     id 6 
     name rhipjoint
     direction -0.569886 -0.769002 0.289597   
     length 2.40495  
     axis 0 0 0  XYZ 
  end
  begin
     id 7 
     name rfemur
     direction -0.34202 -0.939693 0   
     length 7.45086   
     axis 0 0 -20   XYZ
    dof rx ry rz
    limits (-160.0 20.0)
           (-70.0 70.0)
           (-70.0 60.0)
  end
  begin
     id 8 
     name rtibia
     direction -0.34202 -0.939693 0   
     length 7.76831   
     axis 0 0 -20   XYZ
    dof rx
    limits (-10.0 170.0)
 end
 begin
     id 9 
     name rfoot
     direction -0.0798572 -0.219406 0.97236   
     length 2.35911  
     axis -90 -7.62852e-016 -20   XYZ
    dof rx rz
    limits (-45.0 90.0)
           (-20.0 70.0)
  end
  begin
     id 10 
     name rtoes
     direction -1.53469e-011 -4.21728e-011 1   
     length 1.18261   
     axis -90 -7.62852e-016 -20   XYZ
    dof rx
    limits (-90.0 20.0)
  end
  begin
     id 11 
     name lowerback
     direction 0.0242088 0.999437 0.0232389   
     length 2.1561   
     axis 0 0 0   XYZ
    dof rx ry rz
    limits (-20.0 45.0)
           (-30.0 30.0)
           (-30.0 30.0)
  end
  begin
     id 12 
     name upperback
     direction -0.0356893 0.999013 -0.0264323   
     length 2.14431   
     axis 0 0 0   XYZ
    dof rx ry rz
    limits (-20.0 45.0)
           (-30.0 30.0)
           (-30.0 30.0)
  end
  begin
     id 13 
     name thorax
     direction -0.0472163 0.998194 -0.0371284   
     length 2.16169   
     axis 0 0 0   XYZ
    dof rx ry rz
    limits (-20.0 45.0)
           (-30.0 30.0)
           (-30.0 30.0)
  end
  begin
     id 14 
     name lowerneck
     direction 0.00863244 0.999921 0.00911972   
     length 1.58651   
     axis 0 0 0   XYZ
    dof rx ry rz
    limits (-20.0 45.0)
           (-30.0 30.0)
           (-30.0 30.0)
  end
  begin
     id 15 
     name upperneck
     direction 0.149523 0.979068 -0.138086   
     length 1.57486   
     axis 0 0 0   XYZ
    dof rx ry rz
    limits (-20.0 45.0)
           (-30.0 30.0)
           (-30.0 30.0)
  end
  begin
     id 16
     name head
     direction 0.0445219 0.997708 -0.0509576  
     length 1.6019  
     axis 0 0 0   XYZ
    dof rx ry rz
    limits (-20.0 45.0)
           (-30.0 30.0)
           (-30.0 30.0)
  end
  begin
     id 17 
     name lclavicle
     direction 0.911271 0.381667 -0.154644  
     length 3.80848  
     axis 0 0 0   XYZ
    dof ry rz
    limits (-20.0 10.0)
           (0.0 20.0)
  end
  begin
     id 18 
     name lhumerus
     direction 1 -4.49003e-011 2.1308e-027   
     length 5.19069   
     axis 180 -30 -90   XYZ
    dof rx ry rz
    limits (-60.0 90.0)
           (-90.0 90.0)
           (-90.0 90.0)
  end
  begin
     id 19
     name lradius
     direction 1 -4.48914e-011 4.01554e-027   
     length 3.30016   
     axis 180 -30 -90   XYZ
    dof rx
    limits (-10.0 170.0)
  end
  begin
     id 20
     name lwrist
     direction 1 -4.49003e-011 1.1934e-026   
     length 1.65008   
     axis -8.46377e-015 90 90   XYZ
    dof ry
    limits (-180.0 0.0)
 end
  begin
     id 21 
     name lhand
     direction 1 -4.49034e-011 2.38659e-026   
     length 0.707698   
     axis -1.52313e-014 90 90   XYZ
    dof rx rz
    limits (-90.0 90.0)
           (-45.0 45.0)
  end
  begin
     id 22 
     name lfingers
     direction 1 -4.48691e-011 4.77775e-026   
     length 0.570564   
     axis -3.04623e-014 90 90   XYZ
    dof rx
    limits (0.0 90.0)
  end
  begin
     id 23
     name lthumb
     direction 0.707107 -6.34832e-011 0.707107   
     length 0.819219   
     axis -90 45 -1.62303e-014   XYZ
    dof rx rz
    limits (-45.0 45.0)
           (-45.0 45.0)
  end
  begin
     id 24 
     name rclavicle
     direction -0.815579 0.573708 -0.0754329   
     length 3.54371  
     axis 0 0 0   XYZ 
    dof ry rz
    limits (-10.0 20.0)
           (-20.0 0.0)
  end
  begin
     id 25 
     name rhumerus
     direction -1 -4.48956e-011 3.05351e-028  
     length 5.23924   
     axis 180 30 90   XYZ
    dof rx ry rz
    limits (-90.0 60.0)
           (-90.0 90.0)
           (-90.0 90.0)
  end
  begin
     id 26 
     name rradius
     direction -1 -4.49013e-011 3.53849e-027   
     length 3.32953   
     axis 180 30 90   XYZ
    dof rx
    limits (-10.0 170.0)
  end
  begin
     id 27 
     name rwrist
     direction -1 -4.48901e-011 1.19374e-026   
     length 1.66477   
     axis -8.46377e-015 -90 -90   XYZ
    dof ry
    limits (-180.0 0.0)
  end
  begin
     id 28
     name rhand
     direction -1 -4.48877e-011 2.38764e-026   
     length 0.607414   
     axis -1.52313e-014 -90 -90   XYZ
    dof rx rz
    limits (-90.0 90.0)
           (-45.0 45.0)
  end
  begin
     id 29
     name rfingers
     direction -1 -4.48882e-011 4.77521e-026   
     length 0.489712   
     axis -3.04623e-014 -90 -90   XYZ
    dof rx
    limits (0.0 90.0)
  end
  begin
     id 30
     name rthumb
     direction -0.707107 -6.34974e-011 0.707107   
     length 0.703132   
     axis -90 -45 1.62303e-014   XYZ
    dof rx rz
    limits (-45.0 45.0)
           (-45.0 45.0)
  end
:hierarchy
  begin
    root lhipjoint rhipjoint lowerback
    lhipjoint lfemur
    lfemur ltibia
    ltibia lfoot
    lfoot ltoes
    rhipjoint rfemur
    rfemur rtibia
    rtibia rfoot
    rfoot rtoes
    lowerback upperback
    upperback thorax
    thorax lowerneck lclavicle rclavicle
    lowerneck upperneck
    upperneck head
    lclavicle lhumerus
    lhumerus lradius
    lradius lwrist
    lwrist lhand lthumb
    lhand lfingers
    rclavicle rhumerus
    rhumerus rradius
    rradius rwrist
    rwrist rhand rthumb
    rhand rfingers
  end

#!OML:ASF E:\VariousWalksJay\Project 1\Capture day 1\Session 1\Actor2.ASF
:FULLY-SPECIFIED
:DEGREES
230
root 28.7118 16.159 -29.7402 14.3597 -39.3128 -1.51575
lowerback 27.4498 -1.87733 1.77112
upperback 19.4128 -2.95473 -3.87689
thorax 6.63449 -1.36676 -4.73109
lowerneck 4.57522 0.68503 1.48526
upperneck -17.6703 1.92708 5.56567
head -6.1477 0.351118 1.39685
rclavicle 6.36111e-015 -3.97569e-016
rhumerus -29.0049 14.7972 -88.8357
rradius 66.9542
rwrist 2.00974
rhand -24.2248 -6.67086
rfingers 7.12502
rthumb 2.26021 -36.6386
lclavicle 6.36111e-015 -3.97569e-016
lhumerus 25.6927 -25.2774 59.3131
lradius 95.1255
lwrist 60.7471
lhand -40.9082 16.9138
lfingers 7.12502
lthumb -13.8431 46.4332
rfemur -83.8975 4.2639 19.0249
rtibia 79.2712
rfoot -19.9632 -11.956
rtoes -21.5364
lfemur -47.1853 11.3245 -31.969
ltibia 56.2438
lfoot -26.7854 12.1247
ltoes 0.0674666
231
root 28.7041 16.162 -29.7075 14.2133 -39.3016 -1.46796
lowerback 27.448 -1.86984 1.75719
upperback 19.441 -2.94961 -3.89725
thorax 6.67053 -1.36347 -4.74896
lowerneck 4.79161 0.677011 1.49531
upperneck -17.6972 1.92226 5.52849
head -6.19354 0.347816 1.38327
rclavicle -6.36111e-015 7.35503e-014
rhumerus -29.0116 14.863 -88.8805
rradius 66.9235
rwrist 1.99136
rhand -24.1915 -6.63261
rfingers 7.12502
rthumb 2.29239 -36.6
lclavicle -6.36111e-015 7.35503e-014
lhumerus 26.2158 -25.0478 59.175
lradius 94.8557
lwrist 60.7751
lhand -40.8466 17.0365
lfingers 7.12502
lthumb -13.7838 46.5599
rfemur -83.5134 4.33109 19.1712
rtibia 77.3748
rfoot -20.0839 -12.1218
rtoes -21.7846
lfemur -46.8841 11.3291 -32.0147
ltibia 56.192
lfoot -26.9034 12.1873
ltoes -0.00660112
232
root 28.6953 16.1647 -29.6731 14.0574 -39.2904 -1.42336
lowerback 27.4324 -1.85173 1.73868
upperback 19.463 -2.93161 -3.90407
thorax 6.70711 -1.35515 -4.75195
lowerneck 5.02111 0.65708 1.51959
upperneck -17.71 1.89836 5.46762
head -6.23656 0.336492 1.36096
rclavicle -3.49861e-014 -4.37326e-015
rhumerus -29.021 14.9226 -88.901
rradius 66.8897
rwrist 1.96491
rhand -24.1631 -6.59946
rfingers 7.12502
rthumb 2.31989 -36.5666
lclavicle -3.49861e-014 -4.37326e-015
lhumerus 26.7278 -24.8488 59.0719
lradius 94.5595
lwrist 60.7786
lhand -40.8534 16.9434
lfingers 7.12502
lthumb -13.7904 46.4663
rfemur -83.0512 4.39872 19.3084
rtibia 75.399
rfoot -20.1714 -12.2584
rtoes -22.0415
lfemur -46.5638 11.3279 -32.0522
ltibia 56.1435
lfoot -27.0259 12.2555
ltoes -0.0755848
233
root 28.6854 16.1672 -29.6367 13.8899 -39.2791 -1.38481
lowerback 27.3963 -1.83515 1.72332
upperback 19.4851 -2.91484 -3.90884
thorax 6.75301 -1.34714 -4.75482
lowerneck 5.25548 0.63636 1.54409
upperneck -17.7092 1.87173 5.39922
head -6.276 0.32492 1.33632
rclavicle 7.95139e-015 -6.20208e-014
rhumerus -29.0293 14.9901 -88.9173
rradius 66.8528
rwrist 1.94123
rhand -24.142 -6.59151
rfingers 7.12502
rthumb 2.34019 -36.5584
lclavicle 7.95139e-015 -6.20208e-014
lhumerus 27.2437 -24.6416 58.9552
lradius 94.2392
lwrist 60.803
lhand -40.8916 16.7165
lfingers 7.12502
lthumb -13.8272 46.2369
rfemur -82.5115 4.46597 19.4384
rtibia 73.3549
rfoot -20.2299 -12.3628
rtoes -22.3255
lfemur -46.2174 11.3145 -32.0764
ltibia 56.1008
lfoot -27.156 12.3375
ltoes -0.14434
234
root 28.674 16.1696 -29.5987 13.7013 -39.282 -1.34871
lowerback 27.348 -1.81585 1.70031
upperback 19.5097 -2.89659 -3.91872
thorax 6.80763 -1.33879 -4.75994
lowerneck 5.51175 0.619932 1.54153
upperneck -17.7177 1.85358 5.35621
head -6.32285 0.316779 1.32375
rclavicle 3.18055e-015 -3.4191e-014
rhumerus -29.0326 15.0664 -88.9391
rradius 66.8109
rwrist 1.9281
rhand -24.1219 -6.58556
rfingers 7.12502
rthumb 2.35964 -36.5523
lclavicle 3.18055e-015 -3.4191e-014
lhumerus 27.7378 -24.4381 58.8525
lradius 93.8993
lwrist 60.8106
lhand -40.9451 16.4183
lfingers 7.12502
lthumb -13.8787 45.9352
rfemur -81.8939 4.55165 19.5511
rtibia 71.2543
rfoot -20.2725 -12.4253
rtoes -22.5815
lfemur -45.8395 11.3059 -32.0911
ltibia 56.0643
lfoot -27.2962 12.4332
ltoes -0.219979
235
root 28.6602 16.1718 -29.5596 13.5086 -39.3589 -1.3222
lowerback 27.2715 -1.76165 1.6277
upperback 19.5338 -2.84561 -3.93607
thorax 6.87873 -1.31882 -4.75328
lowerneck 5.77097 0.606661 1.52964
upperneck -17.7152 1.83969 5.32198
head -6.36699 0.311019 1.3152
rclavicle 7.63333e-014 -2.94201e-014
rhumerus -29.0304 15.1495 -88.9697
rradius 66.7607
rwrist 1.92593
rhand -24.1032 -6.58627
rfingers 7.12502
rthumb 2.37773 -36.5528
lclavicle 7.63333e-014 -2.94201e-014
lhumerus 28.2174 -24.2296 58.7447
lradius 93.5444
lwrist 60.8222
lhand -40.9931 16.1291
lfingers 7.12502
lthumb -13.925 45.6428
rfemur -81.2205 4.71019 19.6494
rtibia 69.1068
rfoot -20.2978 -12.4458
rtoes -22.8042
lfemur -45.451 11.3664 -32.1052
ltibia 56.0374
lfoot -27.4509 12.5347
ltoes -0.309835
